# Tiled2Unity generated file. Do not modify by hand.
# Wavefront file for 'Map1_mesh_0007.obj'

# Vertices (Count = 608)
v -1504 -64 0
v -1520 -64 0
v -1520 -48 0
v -1504 -48 0
v -1472 -64 0
v -1488 -64 0
v -1488 -48 0
v -1472 -48 0
v -1456 -64 0
v -1472 -64 0
v -1472 -48 0
v -1456 -48 0
v -1520 -80 0
v -1536 -80 0
v -1536 -64 0
v -1520 -64 0
v -1472 -80 0
v -1488 -80 0
v -1488 -64 0
v -1472 -64 0
v -1456 -80 0
v -1472 -80 0
v -1472 -64 0
v -1456 -64 0
v -1520 -96 0
v -1536 -96 0
v -1536 -80 0
v -1520 -80 0
v -1504 -96 0
v -1520 -96 0
v -1520 -80 0
v -1504 -80 0
v -1472 -96 0
v -1488 -96 0
v -1488 -80 0
v -1472 -80 0
v -1456 -96 0
v -1472 -96 0
v -1472 -80 0
v -1456 -80 0
v -1488 -144 0
v -1504 -144 0
v -1504 -128 0
v -1488 -128 0
v -1456 -144 0
v -1472 -144 0
v -1472 -128 0
v -1456 -128 0
v -784 -176 0
v -800 -176 0
v -800 -160 0
v -784 -160 0
v -768 -176 0
v -784 -176 0
v -784 -160 0
v -768 -160 0
v -784 -208 0
v -800 -208 0
v -800 -192 0
v -784 -192 0
v -768 -208 0
v -784 -208 0
v -784 -192 0
v -768 -192 0
v -1520 -240 0
v -1536 -240 0
v -1536 -224 0
v -1520 -224 0
v -1408 -240 0
v -1424 -240 0
v -1424 -224 0
v -1408 -224 0
v -1312 -240 0
v -1328 -240 0
v -1328 -224 0
v -1312 -224 0
v -1536 -256 0
v -1552 -256 0
v -1552 -240 0
v -1536 -240 0
v -1520 -256 0
v -1536 -256 0
v -1536 -240 0
v -1520 -240 0
v -1392 -256 0
v -1408 -256 0
v -1408 -240 0
v -1392 -240 0
v -1312 -256 0
v -1328 -256 0
v -1328 -240 0
v -1312 -240 0
v -1440 -272 0
v -1456 -272 0
v -1456 -256 0
v -1440 -256 0
v -1424 -272 0
v -1440 -272 0
v -1440 -256 0
v -1424 -256 0
v -1440 -288 0
v -1456 -288 0
v -1456 -272 0
v -1440 -272 0
v -1424 -288 0
v -1440 -288 0
v -1440 -272 0
v -1424 -272 0
v -1360 -288 0
v -1376 -288 0
v -1376 -272 0
v -1360 -272 0
v -1344 -288 0
v -1360 -288 0
v -1360 -272 0
v -1344 -272 0
v -1280 -288 0
v -1296 -288 0
v -1296 -272 0
v -1280 -272 0
v -1264 -288 0
v -1280 -288 0
v -1280 -272 0
v -1264 -272 0
v -1440 -400 0
v -1456 -400 0
v -1456 -384 0
v -1440 -384 0
v -1424 -400 0
v -1440 -400 0
v -1440 -384 0
v -1424 -384 0
v -1216 -400 0
v -1232 -400 0
v -1232 -384 0
v -1216 -384 0
v -1200 -400 0
v -1216 -400 0
v -1216 -384 0
v -1200 -384 0
v -1552 -416 0
v -1568 -416 0
v -1568 -400 0
v -1552 -400 0
v -1536 -416 0
v -1552 -416 0
v -1552 -400 0
v -1536 -400 0
v -1440 -416 0
v -1456 -416 0
v -1456 -400 0
v -1440 -400 0
v -1424 -416 0
v -1440 -416 0
v -1440 -400 0
v -1424 -400 0
v -1376 -416 0
v -1392 -416 0
v -1392 -400 0
v -1376 -400 0
v -1296 -416 0
v -1312 -416 0
v -1312 -400 0
v -1296 -400 0
v -1376 -432 0
v -1392 -432 0
v -1392 -416 0
v -1376 -416 0
v -1360 -432 0
v -1376 -432 0
v -1376 -416 0
v -1360 -416 0
v -1296 -432 0
v -1312 -432 0
v -1312 -416 0
v -1296 -416 0
v -1280 -432 0
v -1296 -432 0
v -1296 -416 0
v -1280 -416 0
v -1200 -432 0
v -1216 -432 0
v -1216 -416 0
v -1200 -416 0
v -464 -480 0
v -480 -480 0
v -480 -464 0
v -464 -464 0
v -448 -480 0
v -464 -480 0
v -464 -464 0
v -448 -464 0
v -432 -480 0
v -448 -480 0
v -448 -464 0
v -432 -464 0
v -1504 -496 0
v -1520 -496 0
v -1520 -480 0
v -1504 -480 0
v -1312 -496 0
v -1328 -496 0
v -1328 -480 0
v -1312 -480 0
v -1296 -496 0
v -1312 -496 0
v -1312 -480 0
v -1296 -480 0
v -432 -496 0
v -448 -496 0
v -448 -480 0
v -432 -480 0
v -1312 -512 0
v -1328 -512 0
v -1328 -496 0
v -1312 -496 0
v -1296 -512 0
v -1312 -512 0
v -1312 -496 0
v -1296 -496 0
v -432 -512 0
v -448 -512 0
v -448 -496 0
v -432 -496 0
v -432 -528 0
v -448 -528 0
v -448 -512 0
v -432 -512 0
v -1312 -544 0
v -1328 -544 0
v -1328 -528 0
v -1312 -528 0
v -1248 -544 0
v -1264 -544 0
v -1264 -528 0
v -1248 -528 0
v -432 -544 0
v -448 -544 0
v -448 -528 0
v -432 -528 0
v -48 -544 0
v -64 -544 0
v -64 -528 0
v -48 -528 0
v -32 -544 0
v -48 -544 0
v -48 -528 0
v -32 -528 0
v -16 -544 0
v -32 -544 0
v -32 -528 0
v -16 -528 0
v 0 -544 0
v -16 -544 0
v -16 -528 0
v 0 -528 0
v -1392 -560 0
v -1408 -560 0
v -1408 -544 0
v -1392 -544 0
v -432 -560 0
v -448 -560 0
v -448 -544 0
v -432 -544 0
v -48 -560 0
v -64 -560 0
v -64 -544 0
v -48 -544 0
v -32 -560 0
v -48 -560 0
v -48 -544 0
v -32 -544 0
v -16 -560 0
v -32 -560 0
v -32 -544 0
v -16 -544 0
v 0 -560 0
v -16 -560 0
v -16 -544 0
v 0 -544 0
v -1552 -576 0
v -1568 -576 0
v -1568 -560 0
v -1552 -560 0
v -1536 -576 0
v -1552 -576 0
v -1552 -560 0
v -1536 -560 0
v -1392 -576 0
v -1408 -576 0
v -1408 -560 0
v -1392 -560 0
v -976 -576 0
v -992 -576 0
v -992 -560 0
v -976 -560 0
v -960 -576 0
v -976 -576 0
v -976 -560 0
v -960 -560 0
v -928 -576 0
v -944 -576 0
v -944 -560 0
v -928 -560 0
v -912 -576 0
v -928 -576 0
v -928 -560 0
v -912 -560 0
v -432 -576 0
v -448 -576 0
v -448 -560 0
v -432 -560 0
v -16 -576 0
v -32 -576 0
v -32 -560 0
v -16 -560 0
v 0 -576 0
v -16 -576 0
v -16 -560 0
v 0 -560 0
v -432 -592 0
v -448 -592 0
v -448 -576 0
v -432 -576 0
v -208 -592 0
v -224 -592 0
v -224 -576 0
v -208 -576 0
v -16 -592 0
v -32 -592 0
v -32 -576 0
v -16 -576 0
v 0 -592 0
v -16 -592 0
v -16 -576 0
v 0 -576 0
v -432 -640 0
v -448 -640 0
v -448 -624 0
v -432 -624 0
v -416 -640 0
v -432 -640 0
v -432 -624 0
v -416 -624 0
v -400 -640 0
v -416 -640 0
v -416 -624 0
v -400 -624 0
v -384 -640 0
v -400 -640 0
v -400 -624 0
v -384 -624 0
v -448 -832 0
v -464 -832 0
v -464 -816 0
v -448 -816 0
v -432 -832 0
v -448 -832 0
v -448 -816 0
v -432 -816 0
v -416 -832 0
v -432 -832 0
v -432 -816 0
v -416 -816 0
v -80 -832 0
v -96 -832 0
v -96 -816 0
v -80 -816 0
v -64 -832 0
v -80 -832 0
v -80 -816 0
v -64 -816 0
v -448 -848 0
v -464 -848 0
v -464 -832 0
v -448 -832 0
v -432 -848 0
v -448 -848 0
v -448 -832 0
v -432 -832 0
v -416 -848 0
v -432 -848 0
v -432 -832 0
v -416 -832 0
v -128 -848 0
v -144 -848 0
v -144 -832 0
v -128 -832 0
v -112 -848 0
v -128 -848 0
v -128 -832 0
v -112 -832 0
v -80 -848 0
v -96 -848 0
v -96 -832 0
v -80 -832 0
v -64 -848 0
v -80 -848 0
v -80 -832 0
v -64 -832 0
v -32 -848 0
v -48 -848 0
v -48 -832 0
v -32 -832 0
v -16 -848 0
v -32 -848 0
v -32 -832 0
v -16 -832 0
v -448 -864 0
v -464 -864 0
v -464 -848 0
v -448 -848 0
v -432 -864 0
v -448 -864 0
v -448 -848 0
v -432 -848 0
v -416 -864 0
v -432 -864 0
v -432 -848 0
v -416 -848 0
v -128 -864 0
v -144 -864 0
v -144 -848 0
v -128 -848 0
v -112 -864 0
v -128 -864 0
v -128 -848 0
v -112 -848 0
v -32 -864 0
v -48 -864 0
v -48 -848 0
v -32 -848 0
v -16 -864 0
v -32 -864 0
v -32 -848 0
v -16 -848 0
v -368 -880 0
v -384 -880 0
v -384 -864 0
v -368 -864 0
v -352 -880 0
v -368 -880 0
v -368 -864 0
v -352 -864 0
v -80 -880 0
v -96 -880 0
v -96 -864 0
v -80 -864 0
v -64 -880 0
v -80 -880 0
v -80 -864 0
v -64 -864 0
v -352 -896 0
v -368 -896 0
v -368 -880 0
v -352 -880 0
v -128 -896 0
v -144 -896 0
v -144 -880 0
v -128 -880 0
v -112 -896 0
v -128 -896 0
v -128 -880 0
v -112 -880 0
v -80 -896 0
v -96 -896 0
v -96 -880 0
v -80 -880 0
v -64 -896 0
v -80 -896 0
v -80 -880 0
v -64 -880 0
v -32 -896 0
v -48 -896 0
v -48 -880 0
v -32 -880 0
v -16 -896 0
v -32 -896 0
v -32 -880 0
v -16 -880 0
v -416 -912 0
v -432 -912 0
v -432 -896 0
v -416 -896 0
v -400 -912 0
v -416 -912 0
v -416 -896 0
v -400 -896 0
v -384 -912 0
v -400 -912 0
v -400 -896 0
v -384 -896 0
v -352 -912 0
v -368 -912 0
v -368 -896 0
v -352 -896 0
v -128 -912 0
v -144 -912 0
v -144 -896 0
v -128 -896 0
v -112 -912 0
v -128 -912 0
v -128 -896 0
v -112 -896 0
v -32 -912 0
v -48 -912 0
v -48 -896 0
v -32 -896 0
v -16 -912 0
v -32 -912 0
v -32 -896 0
v -16 -896 0
v -416 -928 0
v -432 -928 0
v -432 -912 0
v -416 -912 0
v -400 -928 0
v -416 -928 0
v -416 -912 0
v -400 -912 0
v -384 -928 0
v -400 -928 0
v -400 -912 0
v -384 -912 0
v -352 -928 0
v -368 -928 0
v -368 -912 0
v -352 -912 0
v -80 -928 0
v -96 -928 0
v -96 -912 0
v -80 -912 0
v -64 -928 0
v -80 -928 0
v -80 -912 0
v -64 -912 0
v -416 -944 0
v -432 -944 0
v -432 -928 0
v -416 -928 0
v -400 -944 0
v -416 -944 0
v -416 -928 0
v -400 -928 0
v -384 -944 0
v -400 -944 0
v -400 -928 0
v -384 -928 0
v -352 -944 0
v -368 -944 0
v -368 -928 0
v -352 -928 0
v -128 -944 0
v -144 -944 0
v -144 -928 0
v -128 -928 0
v -112 -944 0
v -128 -944 0
v -128 -928 0
v -112 -928 0
v -80 -944 0
v -96 -944 0
v -96 -928 0
v -80 -928 0
v -64 -944 0
v -80 -944 0
v -80 -928 0
v -64 -928 0
v -32 -944 0
v -48 -944 0
v -48 -928 0
v -32 -928 0
v -16 -944 0
v -32 -944 0
v -32 -928 0
v -16 -928 0
v -128 -960 0
v -144 -960 0
v -144 -944 0
v -128 -944 0
v -112 -960 0
v -128 -960 0
v -128 -944 0
v -112 -944 0
v -32 -960 0
v -48 -960 0
v -48 -944 0
v -32 -944 0
v -16 -960 0
v -32 -960 0
v -32 -944 0
v -16 -944 0
v -272 -992 0
v -288 -992 0
v -288 -976 0
v -272 -976 0
v -192 -992 0
v -208 -992 0
v -208 -976 0
v -192 -976 0
v -272 -1008 0
v -288 -1008 0
v -288 -992 0
v -272 -992 0
v -192 -1008 0
v -208 -1008 0
v -208 -992 0
v -192 -992 0

# Texture cooridinates (Count = 236)
vt 0.7902893 0.9695817
vt 0.8068182 0.9695817
vt 0.8068182 1
vt 0.7902893 1
vt 0.07024793 0.7756654
vt 0.08677686 0.7756654
vt 0.08677686 0.8060837
vt 0.07024793 0.8060837
vt 0.03512397 0.7756654
vt 0.05165289 0.7756654
vt 0.05165289 0.8060837
vt 0.03512397 0.8060837
vt 0.7376033 0.9372624
vt 0.7541322 0.9372624
vt 0.7541322 0.9676806
vt 0.7376033 0.9676806
vt 0.07024793 0.743346
vt 0.08677686 0.743346
vt 0.08677686 0.7737643
vt 0.07024793 0.7737643
vt 0.03512397 0.743346
vt 0.05165289 0.743346
vt 0.05165289 0.7737643
vt 0.03512397 0.7737643
vt 0.6322314 0.904943
vt 0.6487603 0.904943
vt 0.6487603 0.9353612
vt 0.6322314 0.9353612
vt 0.07024793 0.7110266
vt 0.08677686 0.7110266
vt 0.08677686 0.7414448
vt 0.07024793 0.7414448
vt 0.03512397 0.7110266
vt 0.05165289 0.7110266
vt 0.05165289 0.7414448
vt 0.03512397 0.7414448
vt 0.05268595 0.6463878
vt 0.06921487 0.6463878
vt 0.06921487 0.6768061
vt 0.05268595 0.6768061
vt 0.7376033 0.9695817
vt 0.7541322 0.9695817
vt 0.7541322 1
vt 0.7376033 1
vt 0.6322314 0.9372624
vt 0.6487603 0.9372624
vt 0.6487603 0.9676806
vt 0.6322314 0.9676806
vt 0.7024794 0.9695817
vt 0.7190083 0.9695817
vt 0.7190083 1
vt 0.7024794 1
vt 0.5619835 0.9695817
vt 0.5785124 0.9695817
vt 0.5785124 1
vt 0.5619835 1
vt 0.05268595 0.743346
vt 0.06921487 0.743346
vt 0.06921487 0.7737643
vt 0.05268595 0.7737643
vt 0.01756198 0.7756654
vt 0.03409091 0.7756654
vt 0.03409091 0.8060837
vt 0.01756198 0.8060837
vt 0 0.7756654
vt 0.01652892 0.7756654
vt 0.01652892 0.8060837
vt 0 0.8060837
vt 0.8078513 0.8403042
vt 0.8243802 0.8403042
vt 0.8243802 0.8707224
vt 0.8078513 0.8707224
vt 0.01756198 0.743346
vt 0.03409091 0.743346
vt 0.03409091 0.7737643
vt 0.01756198 0.7737643
vt 0 0.743346
vt 0.01652892 0.743346
vt 0.01652892 0.7737643
vt 0 0.7737643
vt 0.6322314 0.9695817
vt 0.6487603 0.9695817
vt 0.6487603 1
vt 0.6322314 1
vt 0.9132231 0.9353612
vt 0.9297521 0.9353612
vt 0.9297521 0.904943
vt 0.9132231 0.904943
vt 0.8956612 0.9353612
vt 0.9121901 0.9353612
vt 0.9121901 0.904943
vt 0.8956612 0.904943
vt 0.4555785 0.4201521
vt 0.4555785 0.4505703
vt 0.4390496 0.4505703
vt 0.4390496 0.4201521
vt 0.7376033 0.904943
vt 0.7541322 0.904943
vt 0.7541322 0.9353612
vt 0.7376033 0.9353612
vt 0.9132231 0.6463878
vt 0.9297521 0.6463878
vt 0.9297521 0.6768061
vt 0.9132231 0.6768061
vt 0.7024794 0.6463878
vt 0.7190083 0.6463878
vt 0.7190083 0.6768061
vt 0.7024794 0.6768061
vt 0.6849173 0.6463878
vt 0.7014463 0.6463878
vt 0.7014463 0.6768061
vt 0.6849173 0.6768061
vt 0.3863636 0.3878327
vt 0.4028926 0.3878327
vt 0.4028926 0.418251
vt 0.3863636 0.418251
vt 0.8956612 0.9372624
vt 0.9121901 0.9372624
vt 0.9121901 0.9676806
vt 0.8956612 0.9676806
vt 0.5795454 0.7110266
vt 0.5960744 0.7110266
vt 0.5960744 0.7414448
vt 0.5795454 0.7414448
vt 0.5619835 0.7110266
vt 0.5785124 0.7110266
vt 0.5785124 0.7414448
vt 0.5619835 0.7414448
vt 0.07024793 0.5817491
vt 0.08677686 0.5817491
vt 0.08677686 0.6121673
vt 0.07024793 0.6121673
vt 0.05268595 0.5817491
vt 0.06921487 0.5817491
vt 0.06921487 0.6121673
vt 0.05268595 0.6121673
vt 0.03512397 0.5817491
vt 0.05165289 0.5817491
vt 0.05165289 0.6121673
vt 0.03512397 0.6121673
vt 0.8605372 0.6463878
vt 0.8770661 0.6463878
vt 0.8770661 0.6768061
vt 0.8605372 0.6768061
vt 0.8429752 0.6463878
vt 0.8595041 0.6463878
vt 0.8595041 0.6768061
vt 0.8429752 0.6768061
vt 0.07024793 0.5494297
vt 0.08677686 0.5494297
vt 0.08677686 0.5798479
vt 0.07024793 0.5798479
vt 0.05268595 0.5494297
vt 0.06921487 0.5494297
vt 0.06921487 0.5798479
vt 0.05268595 0.5798479
vt 0.03512397 0.5494297
vt 0.05165289 0.5494297
vt 0.05165289 0.5798479
vt 0.03512397 0.5798479
vt 0.8254132 0.6463878
vt 0.8419421 0.6463878
vt 0.8419421 0.6768061
vt 0.8254132 0.6768061
vt 0.8078513 0.6463878
vt 0.8243802 0.6463878
vt 0.8243802 0.6768061
vt 0.8078513 0.6768061
vt 0.8605372 0.6140684
vt 0.8770661 0.6140684
vt 0.8770661 0.6444867
vt 0.8605372 0.6444867
vt 0.8429752 0.6140684
vt 0.8595041 0.6140684
vt 0.8595041 0.6444867
vt 0.8429752 0.6444867
vt 0.07024793 0.5171102
vt 0.08677686 0.5171102
vt 0.08677686 0.5475285
vt 0.07024793 0.5475285
vt 0.05268595 0.5171102
vt 0.06921487 0.5171102
vt 0.06921487 0.5475285
vt 0.05268595 0.5475285
vt 0.03512397 0.5171102
vt 0.05165289 0.5171102
vt 0.05165289 0.5475285
vt 0.03512397 0.5475285
vt 0.8254132 0.6140684
vt 0.8419421 0.6140684
vt 0.8419421 0.6444867
vt 0.8254132 0.6444867
vt 0.8078513 0.6140684
vt 0.8243802 0.6140684
vt 0.8243802 0.6444867
vt 0.8078513 0.6444867
vt 0.07024793 0.6787072
vt 0.08677686 0.6787072
vt 0.08677686 0.7091255
vt 0.07024793 0.7091255
vt 0.05268595 0.6787072
vt 0.06921487 0.6787072
vt 0.06921487 0.7091255
vt 0.05268595 0.7091255
vt 0.03512397 0.6787072
vt 0.05165289 0.6787072
vt 0.05165289 0.7091255
vt 0.03512397 0.7091255
vt 0.07024793 0.6463878
vt 0.08677686 0.6463878
vt 0.08677686 0.6768061
vt 0.07024793 0.6768061
vt 0.03512397 0.6463878
vt 0.05165289 0.6463878
vt 0.05165289 0.6768061
vt 0.03512397 0.6768061
vt 0.07024793 0.6140684
vt 0.08677686 0.6140684
vt 0.08677686 0.6444867
vt 0.07024793 0.6444867
vt 0.05268595 0.6140684
vt 0.06921487 0.6140684
vt 0.06921487 0.6444867
vt 0.05268595 0.6444867
vt 0.03512397 0.6140684
vt 0.05165289 0.6140684
vt 0.05165289 0.6444867
vt 0.03512397 0.6444867
vt 0.8605372 0.9695817
vt 0.8770661 0.9695817
vt 0.8770661 1
vt 0.8605372 1
vt 0.8605372 0.904943
vt 0.8770661 0.904943
vt 0.8770661 0.9353612
vt 0.8605372 0.9353612

# Normal
vn 0 0 -1

# Mesh description
g Map1_mesh_0007

# Faces
f 1/1/1 2/2/1 3/3/1 4/4/1
f 5/5/1 6/6/1 7/7/1 8/8/1
f 9/9/1 10/10/1 11/11/1 12/12/1
f 13/13/1 14/14/1 15/15/1 16/16/1
f 17/17/1 18/18/1 19/19/1 20/20/1
f 21/21/1 22/22/1 23/23/1 24/24/1
f 25/25/1 26/26/1 27/27/1 28/28/1
f 29/13/1 30/14/1 31/15/1 32/16/1
f 33/29/1 34/30/1 35/31/1 36/32/1
f 37/33/1 38/34/1 39/35/1 40/36/1
f 41/37/1 42/38/1 43/39/1 44/40/1
f 45/37/1 46/38/1 47/39/1 48/40/1
f 49/41/1 50/42/1 51/43/1 52/44/1
f 53/41/1 54/42/1 55/43/1 56/44/1
f 57/13/1 58/14/1 59/15/1 60/16/1
f 61/45/1 62/46/1 63/47/1 64/48/1
f 65/1/1 66/2/1 67/3/1 68/4/1
f 69/13/1 70/14/1 71/15/1 72/16/1
f 73/13/1 74/14/1 75/15/1 76/16/1
f 77/45/1 78/46/1 79/47/1 80/48/1
f 81/49/1 82/50/1 83/51/1 84/52/1
f 85/53/1 86/54/1 87/55/1 88/56/1
f 89/53/1 90/54/1 91/55/1 92/56/1
f 93/57/1 94/58/1 95/59/1 96/60/1
f 97/57/1 98/58/1 99/59/1 100/60/1
f 101/57/1 102/58/1 103/59/1 104/60/1
f 105/57/1 106/58/1 107/59/1 108/60/1
f 109/57/1 110/58/1 111/59/1 112/60/1
f 113/57/1 114/58/1 115/59/1 116/60/1
f 117/61/1 118/62/1 119/63/1 120/64/1
f 121/65/1 122/66/1 123/67/1 124/68/1
f 125/61/1 126/62/1 127/63/1 128/64/1
f 129/65/1 130/66/1 131/67/1 132/68/1
f 133/69/1 134/70/1 135/71/1 136/72/1
f 137/69/1 138/70/1 139/71/1 140/72/1
f 141/41/1 142/42/1 143/43/1 144/44/1
f 145/41/1 146/42/1 147/43/1 148/44/1
f 149/73/1 150/74/1 151/75/1 152/76/1
f 153/77/1 154/78/1 155/79/1 156/80/1
f 157/69/1 158/70/1 159/71/1 160/72/1
f 161/41/1 162/42/1 163/43/1 164/44/1
f 165/53/1 166/54/1 167/55/1 168/56/1
f 169/41/1 170/42/1 171/43/1 172/44/1
f 173/81/1 174/82/1 175/83/1 176/84/1
f 177/41/1 178/42/1 179/43/1 180/44/1
f 181/53/1 182/54/1 183/55/1 184/56/1
f 185/85/1 186/86/1 187/87/1 188/88/1
f 189/89/1 190/90/1 191/91/1 192/92/1
f 193/93/1 194/94/1 195/95/1 196/96/1
f 197/57/1 198/58/1 199/59/1 200/60/1
f 201/61/1 202/62/1 203/63/1 204/64/1
f 205/65/1 206/66/1 207/67/1 208/68/1
f 209/93/1 210/94/1 211/95/1 212/96/1
f 213/73/1 214/74/1 215/75/1 216/76/1
f 217/77/1 218/78/1 219/79/1 220/80/1
f 221/93/1 222/94/1 223/95/1 224/96/1
f 225/93/1 226/94/1 227/95/1 228/96/1
f 229/57/1 230/58/1 231/59/1 232/60/1
f 233/1/1 234/2/1 235/3/1 236/4/1
f 237/93/1 238/94/1 239/95/1 240/96/1
f 241/37/1 242/38/1 243/39/1 244/40/1
f 245/37/1 246/38/1 247/39/1 248/40/1
f 249/37/1 250/38/1 251/39/1 252/40/1
f 253/37/1 254/38/1 255/39/1 256/40/1
f 257/97/1 258/98/1 259/99/1 260/100/1
f 261/93/1 262/94/1 263/95/1 264/96/1
f 265/101/1 266/102/1 267/103/1 268/104/1
f 269/101/1 270/102/1 271/103/1 272/104/1
f 273/101/1 274/102/1 275/103/1 276/104/1
f 277/101/1 278/102/1 279/103/1 280/104/1
f 281/1/1 282/2/1 283/3/1 284/4/1
f 285/81/1 286/82/1 287/83/1 288/84/1
f 289/53/1 290/54/1 291/55/1 292/56/1
f 293/105/1 294/106/1 295/107/1 296/108/1
f 297/109/1 298/110/1 299/111/1 300/112/1
f 301/105/1 302/106/1 303/107/1 304/108/1
f 305/109/1 306/110/1 307/111/1 308/112/1
f 309/93/1 310/94/1 311/95/1 312/96/1
f 313/37/1 314/38/1 315/39/1 316/40/1
f 317/37/1 318/38/1 319/39/1 320/40/1
f 321/93/1 322/94/1 323/95/1 324/96/1
f 325/113/1 326/114/1 327/115/1 328/116/1
f 329/101/1 330/102/1 331/103/1 332/104/1
f 333/101/1 334/102/1 335/103/1 336/104/1
f 337/117/1 338/118/1 339/119/1 340/120/1
f 341/121/1 342/122/1 343/123/1 344/124/1
f 345/125/1 346/126/1 347/127/1 348/128/1
f 349/117/1 350/118/1 351/119/1 352/120/1
f 353/129/1 354/130/1 355/131/1 356/132/1
f 357/133/1 358/134/1 359/135/1 360/136/1
f 361/137/1 362/138/1 363/139/1 364/140/1
f 365/141/1 366/142/1 367/143/1 368/144/1
f 369/145/1 370/146/1 371/147/1 372/148/1
f 373/149/1 374/150/1 375/151/1 376/152/1
f 377/153/1 378/154/1 379/155/1 380/156/1
f 381/157/1 382/158/1 383/159/1 384/160/1
f 385/161/1 386/162/1 387/163/1 388/164/1
f 389/165/1 390/166/1 391/167/1 392/168/1
f 393/169/1 394/170/1 395/171/1 396/172/1
f 397/173/1 398/174/1 399/175/1 400/176/1
f 401/141/1 402/142/1 403/143/1 404/144/1
f 405/145/1 406/146/1 407/147/1 408/148/1
f 409/177/1 410/178/1 411/179/1 412/180/1
f 413/181/1 414/182/1 415/183/1 416/184/1
f 417/185/1 418/186/1 419/187/1 420/188/1
f 421/189/1 422/190/1 423/191/1 424/192/1
f 425/193/1 426/194/1 427/195/1 428/196/1
f 429/169/1 430/170/1 431/171/1 432/172/1
f 433/173/1 434/174/1 435/175/1 436/176/1
f 437/92/1 438/91/1 439/90/1 440/89/1
f 441/96/1 442/95/1 443/94/1 444/93/1
f 445/141/1 446/142/1 447/143/1 448/144/1
f 449/145/1 450/146/1 451/147/1 452/148/1
f 453/96/1 454/95/1 455/94/1 456/93/1
f 457/141/1 458/142/1 459/143/1 460/144/1
f 461/145/1 462/146/1 463/147/1 464/148/1
f 465/169/1 466/170/1 467/171/1 468/172/1
f 469/173/1 470/174/1 471/175/1 472/176/1
f 473/141/1 474/142/1 475/143/1 476/144/1
f 477/145/1 478/146/1 479/147/1 480/148/1
f 481/197/1 482/198/1 483/199/1 484/200/1
f 485/201/1 486/202/1 487/203/1 488/204/1
f 489/205/1 490/206/1 491/207/1 492/208/1
f 493/96/1 494/95/1 495/94/1 496/93/1
f 497/169/1 498/170/1 499/171/1 500/172/1
f 501/173/1 502/174/1 503/175/1 504/176/1
f 505/169/1 506/170/1 507/171/1 508/172/1
f 509/173/1 510/174/1 511/175/1 512/176/1
f 513/209/1 514/210/1 515/211/1 516/212/1
f 517/37/1 518/38/1 519/39/1 520/40/1
f 521/213/1 522/214/1 523/215/1 524/216/1
f 525/96/1 526/95/1 527/94/1 528/93/1
f 529/141/1 530/142/1 531/143/1 532/144/1
f 533/145/1 534/146/1 535/147/1 536/148/1
f 537/217/1 538/218/1 539/219/1 540/220/1
f 541/221/1 542/222/1 543/223/1 544/224/1
f 545/225/1 546/226/1 547/227/1 548/228/1
f 549/96/1 550/95/1 551/94/1 552/93/1
f 553/161/1 554/162/1 555/163/1 556/164/1
f 557/165/1 558/166/1 559/167/1 560/168/1
f 561/169/1 562/170/1 563/171/1 564/172/1
f 565/173/1 566/174/1 567/175/1 568/176/1
f 569/161/1 570/162/1 571/163/1 572/164/1
f 573/165/1 574/166/1 575/167/1 576/168/1
f 577/189/1 578/190/1 579/191/1 580/192/1
f 581/193/1 582/194/1 583/195/1 584/196/1
f 585/189/1 586/190/1 587/191/1 588/192/1
f 589/193/1 590/194/1 591/195/1 592/196/1
f 593/229/1 594/230/1 595/231/1 596/232/1
f 597/229/1 598/230/1 599/231/1 600/232/1
f 601/233/1 602/234/1 603/235/1 604/236/1
f 605/233/1 606/234/1 607/235/1 608/236/1

