# Tiled2Unity generated file. Do not modify by hand.
# Wavefront file for 'Map1_mesh_0008.obj'

# Vertices (Count = 576)
v -1520 -16 0
v -1536 -16 0
v -1536 0 0
v -1520 0 0
v -1504 -16 0
v -1520 -16 0
v -1520 0 0
v -1504 0 0
v -1536 -32 0
v -1552 -32 0
v -1552 -16 0
v -1536 -16 0
v -1520 -32 0
v -1536 -32 0
v -1536 -16 0
v -1520 -16 0
v -1504 -32 0
v -1520 -32 0
v -1520 -16 0
v -1504 -16 0
v -1488 -32 0
v -1504 -32 0
v -1504 -16 0
v -1488 -16 0
v -1536 -48 0
v -1552 -48 0
v -1552 -32 0
v -1536 -32 0
v -1520 -48 0
v -1536 -48 0
v -1536 -32 0
v -1520 -32 0
v -1504 -48 0
v -1520 -48 0
v -1520 -32 0
v -1504 -32 0
v -1488 -48 0
v -1504 -48 0
v -1504 -32 0
v -1488 -32 0
v -1536 -64 0
v -1552 -64 0
v -1552 -48 0
v -1536 -48 0
v -1488 -64 0
v -1504 -64 0
v -1504 -48 0
v -1488 -48 0
v -784 -128 0
v -800 -128 0
v -800 -112 0
v -784 -112 0
v -768 -128 0
v -784 -128 0
v -784 -112 0
v -768 -112 0
v -800 -144 0
v -816 -144 0
v -816 -128 0
v -800 -128 0
v -784 -144 0
v -800 -144 0
v -800 -128 0
v -784 -128 0
v -768 -144 0
v -784 -144 0
v -784 -128 0
v -768 -128 0
v -752 -144 0
v -768 -144 0
v -768 -128 0
v -752 -128 0
v -800 -160 0
v -816 -160 0
v -816 -144 0
v -800 -144 0
v -784 -160 0
v -800 -160 0
v -800 -144 0
v -784 -144 0
v -768 -160 0
v -784 -160 0
v -784 -144 0
v -768 -144 0
v -752 -160 0
v -768 -160 0
v -768 -144 0
v -752 -144 0
v -1536 -176 0
v -1552 -176 0
v -1552 -160 0
v -1536 -160 0
v -1520 -176 0
v -1536 -176 0
v -1536 -160 0
v -1520 -160 0
v -1408 -176 0
v -1424 -176 0
v -1424 -160 0
v -1408 -160 0
v -1392 -176 0
v -1408 -176 0
v -1408 -160 0
v -1392 -160 0
v -1312 -176 0
v -1328 -176 0
v -1328 -160 0
v -1312 -160 0
v -1296 -176 0
v -1312 -176 0
v -1312 -160 0
v -1296 -160 0
v -800 -176 0
v -816 -176 0
v -816 -160 0
v -800 -160 0
v -752 -176 0
v -768 -176 0
v -768 -160 0
v -752 -160 0
v -1552 -192 0
v -1568 -192 0
v -1568 -176 0
v -1552 -176 0
v -1536 -192 0
v -1552 -192 0
v -1552 -176 0
v -1536 -176 0
v -1520 -192 0
v -1536 -192 0
v -1536 -176 0
v -1520 -176 0
v -1504 -192 0
v -1520 -192 0
v -1520 -176 0
v -1504 -176 0
v -1424 -192 0
v -1440 -192 0
v -1440 -176 0
v -1424 -176 0
v -1408 -192 0
v -1424 -192 0
v -1424 -176 0
v -1408 -176 0
v -1392 -192 0
v -1408 -192 0
v -1408 -176 0
v -1392 -176 0
v -1376 -192 0
v -1392 -192 0
v -1392 -176 0
v -1376 -176 0
v -1328 -192 0
v -1344 -192 0
v -1344 -176 0
v -1328 -176 0
v -1312 -192 0
v -1328 -192 0
v -1328 -176 0
v -1312 -176 0
v -1296 -192 0
v -1312 -192 0
v -1312 -176 0
v -1296 -176 0
v -1280 -192 0
v -1296 -192 0
v -1296 -176 0
v -1280 -176 0
v -1552 -208 0
v -1568 -208 0
v -1568 -192 0
v -1552 -192 0
v -1536 -208 0
v -1552 -208 0
v -1552 -192 0
v -1536 -192 0
v -1520 -208 0
v -1536 -208 0
v -1536 -192 0
v -1520 -192 0
v -1504 -208 0
v -1520 -208 0
v -1520 -192 0
v -1504 -192 0
v -1424 -208 0
v -1440 -208 0
v -1440 -192 0
v -1424 -192 0
v -1408 -208 0
v -1424 -208 0
v -1424 -192 0
v -1408 -192 0
v -1392 -208 0
v -1408 -208 0
v -1408 -192 0
v -1392 -192 0
v -1376 -208 0
v -1392 -208 0
v -1392 -192 0
v -1376 -192 0
v -1328 -208 0
v -1344 -208 0
v -1344 -192 0
v -1328 -192 0
v -1312 -208 0
v -1328 -208 0
v -1328 -192 0
v -1312 -192 0
v -1296 -208 0
v -1312 -208 0
v -1312 -192 0
v -1296 -192 0
v -1280 -208 0
v -1296 -208 0
v -1296 -192 0
v -1280 -192 0
v -1552 -224 0
v -1568 -224 0
v -1568 -208 0
v -1552 -208 0
v -1504 -224 0
v -1520 -224 0
v -1520 -208 0
v -1504 -208 0
v -1424 -224 0
v -1440 -224 0
v -1440 -208 0
v -1424 -208 0
v -1376 -224 0
v -1392 -224 0
v -1392 -208 0
v -1376 -208 0
v -1328 -224 0
v -1344 -224 0
v -1344 -208 0
v -1328 -208 0
v -1280 -224 0
v -1296 -224 0
v -1296 -208 0
v -1280 -208 0
v -1552 -352 0
v -1568 -352 0
v -1568 -336 0
v -1552 -336 0
v -1536 -352 0
v -1552 -352 0
v -1552 -336 0
v -1536 -336 0
v -1376 -352 0
v -1392 -352 0
v -1392 -336 0
v -1376 -336 0
v -1360 -352 0
v -1376 -352 0
v -1376 -336 0
v -1360 -336 0
v -1296 -352 0
v -1312 -352 0
v -1312 -336 0
v -1296 -336 0
v -1280 -352 0
v -1296 -352 0
v -1296 -336 0
v -1280 -336 0
v -1216 -352 0
v -1232 -352 0
v -1232 -336 0
v -1216 -336 0
v -1200 -352 0
v -1216 -352 0
v -1216 -336 0
v -1200 -336 0
v -1568 -368 0
v -1584 -368 0
v -1584 -352 0
v -1568 -352 0
v -1552 -368 0
v -1568 -368 0
v -1568 -352 0
v -1552 -352 0
v -1536 -368 0
v -1552 -368 0
v -1552 -352 0
v -1536 -352 0
v -1520 -368 0
v -1536 -368 0
v -1536 -352 0
v -1520 -352 0
v -1392 -368 0
v -1408 -368 0
v -1408 -352 0
v -1392 -352 0
v -1376 -368 0
v -1392 -368 0
v -1392 -352 0
v -1376 -352 0
v -1360 -368 0
v -1376 -368 0
v -1376 -352 0
v -1360 -352 0
v -1344 -368 0
v -1360 -368 0
v -1360 -352 0
v -1344 -352 0
v -1312 -368 0
v -1328 -368 0
v -1328 -352 0
v -1312 -352 0
v -1296 -368 0
v -1312 -368 0
v -1312 -352 0
v -1296 -352 0
v -1280 -368 0
v -1296 -368 0
v -1296 -352 0
v -1280 -352 0
v -1264 -368 0
v -1280 -368 0
v -1280 -352 0
v -1264 -352 0
v -1232 -368 0
v -1248 -368 0
v -1248 -352 0
v -1232 -352 0
v -1216 -368 0
v -1232 -368 0
v -1232 -352 0
v -1216 -352 0
v -1200 -368 0
v -1216 -368 0
v -1216 -352 0
v -1200 -352 0
v -1184 -368 0
v -1200 -368 0
v -1200 -352 0
v -1184 -352 0
v -1568 -384 0
v -1584 -384 0
v -1584 -368 0
v -1568 -368 0
v -1552 -384 0
v -1568 -384 0
v -1568 -368 0
v -1552 -368 0
v -1536 -384 0
v -1552 -384 0
v -1552 -368 0
v -1536 -368 0
v -1520 -384 0
v -1536 -384 0
v -1536 -368 0
v -1520 -368 0
v -1392 -384 0
v -1408 -384 0
v -1408 -368 0
v -1392 -368 0
v -1376 -384 0
v -1392 -384 0
v -1392 -368 0
v -1376 -368 0
v -1360 -384 0
v -1376 -384 0
v -1376 -368 0
v -1360 -368 0
v -1344 -384 0
v -1360 -384 0
v -1360 -368 0
v -1344 -368 0
v -1312 -384 0
v -1328 -384 0
v -1328 -368 0
v -1312 -368 0
v -1296 -384 0
v -1312 -384 0
v -1312 -368 0
v -1296 -368 0
v -1280 -384 0
v -1296 -384 0
v -1296 -368 0
v -1280 -368 0
v -1264 -384 0
v -1280 -384 0
v -1280 -368 0
v -1264 -368 0
v -1232 -384 0
v -1248 -384 0
v -1248 -368 0
v -1232 -368 0
v -1216 -384 0
v -1232 -384 0
v -1232 -368 0
v -1216 -368 0
v -1200 -384 0
v -1216 -384 0
v -1216 -368 0
v -1200 -368 0
v -1184 -384 0
v -1200 -384 0
v -1200 -368 0
v -1184 -368 0
v -1568 -400 0
v -1584 -400 0
v -1584 -384 0
v -1568 -384 0
v -1520 -400 0
v -1536 -400 0
v -1536 -384 0
v -1520 -384 0
v -1392 -400 0
v -1408 -400 0
v -1408 -384 0
v -1392 -384 0
v -1344 -400 0
v -1360 -400 0
v -1360 -384 0
v -1344 -384 0
v -1312 -400 0
v -1328 -400 0
v -1328 -384 0
v -1312 -384 0
v -1264 -400 0
v -1280 -400 0
v -1280 -384 0
v -1264 -384 0
v -1232 -400 0
v -1248 -400 0
v -1248 -384 0
v -1232 -384 0
v -1184 -400 0
v -1200 -400 0
v -1200 -384 0
v -1184 -384 0
v -1248 -480 0
v -1264 -480 0
v -1264 -464 0
v -1248 -464 0
v -1232 -480 0
v -1248 -480 0
v -1248 -464 0
v -1232 -464 0
v -1264 -496 0
v -1280 -496 0
v -1280 -480 0
v -1264 -480 0
v -1248 -496 0
v -1264 -496 0
v -1264 -480 0
v -1248 -480 0
v -1232 -496 0
v -1248 -496 0
v -1248 -480 0
v -1232 -480 0
v -1216 -496 0
v -1232 -496 0
v -1232 -480 0
v -1216 -480 0
v -1552 -512 0
v -1568 -512 0
v -1568 -496 0
v -1552 -496 0
v -1536 -512 0
v -1552 -512 0
v -1552 -496 0
v -1536 -496 0
v -1392 -512 0
v -1408 -512 0
v -1408 -496 0
v -1392 -496 0
v -1376 -512 0
v -1392 -512 0
v -1392 -496 0
v -1376 -496 0
v -1264 -512 0
v -1280 -512 0
v -1280 -496 0
v -1264 -496 0
v -1248 -512 0
v -1264 -512 0
v -1264 -496 0
v -1248 -496 0
v -1232 -512 0
v -1248 -512 0
v -1248 -496 0
v -1232 -496 0
v -1216 -512 0
v -1232 -512 0
v -1232 -496 0
v -1216 -496 0
v -1568 -528 0
v -1584 -528 0
v -1584 -512 0
v -1568 -512 0
v -1552 -528 0
v -1568 -528 0
v -1568 -512 0
v -1552 -512 0
v -1536 -528 0
v -1552 -528 0
v -1552 -512 0
v -1536 -512 0
v -1520 -528 0
v -1536 -528 0
v -1536 -512 0
v -1520 -512 0
v -1408 -528 0
v -1424 -528 0
v -1424 -512 0
v -1408 -512 0
v -1392 -528 0
v -1408 -528 0
v -1408 -512 0
v -1392 -512 0
v -1376 -528 0
v -1392 -528 0
v -1392 -512 0
v -1376 -512 0
v -1360 -528 0
v -1376 -528 0
v -1376 -512 0
v -1360 -512 0
v -1264 -528 0
v -1280 -528 0
v -1280 -512 0
v -1264 -512 0
v -1216 -528 0
v -1232 -528 0
v -1232 -512 0
v -1216 -512 0
v -1568 -544 0
v -1584 -544 0
v -1584 -528 0
v -1568 -528 0
v -1552 -544 0
v -1568 -544 0
v -1568 -528 0
v -1552 -528 0
v -1536 -544 0
v -1552 -544 0
v -1552 -528 0
v -1536 -528 0
v -1520 -544 0
v -1536 -544 0
v -1536 -528 0
v -1520 -528 0
v -1408 -544 0
v -1424 -544 0
v -1424 -528 0
v -1408 -528 0
v -1392 -544 0
v -1408 -544 0
v -1408 -528 0
v -1392 -528 0
v -1376 -544 0
v -1392 -544 0
v -1392 -528 0
v -1376 -528 0
v -1360 -544 0
v -1376 -544 0
v -1376 -528 0
v -1360 -528 0
v -1568 -560 0
v -1584 -560 0
v -1584 -544 0
v -1568 -544 0
v -1520 -560 0
v -1536 -560 0
v -1536 -544 0
v -1520 -544 0
v -1408 -560 0
v -1424 -560 0
v -1424 -544 0
v -1408 -544 0
v -1360 -560 0
v -1376 -560 0
v -1376 -544 0
v -1360 -544 0

# Texture cooridinates (Count = 48)
vt 0.3688017 0.2908745
vt 0.3853306 0.2908745
vt 0.3853306 0.3212928
vt 0.3688017 0.3212928
vt 0.3512397 0.2908745
vt 0.3677686 0.2908745
vt 0.3677686 0.3212928
vt 0.3512397 0.3212928
vt 0.3688017 0.2585551
vt 0.3853306 0.2585551
vt 0.3853306 0.2889734
vt 0.3688017 0.2889734
vt 0.3512397 0.2585551
vt 0.3677686 0.2585551
vt 0.3677686 0.2889734
vt 0.3512397 0.2889734
vt 0.3688017 0.2262357
vt 0.3853306 0.2262357
vt 0.3853306 0.256654
vt 0.3688017 0.256654
vt 0.3512397 0.2262357
vt 0.3677686 0.2262357
vt 0.3677686 0.256654
vt 0.3512397 0.256654
vt 0.6146694 0.2908745
vt 0.6311983 0.2908745
vt 0.6311983 0.3212928
vt 0.6146694 0.3212928
vt 0.5971074 0.2908745
vt 0.6136364 0.2908745
vt 0.6136364 0.3212928
vt 0.5971074 0.3212928
vt 0.6146694 0.2585551
vt 0.6311983 0.2585551
vt 0.6311983 0.2889734
vt 0.6146694 0.2889734
vt 0.5971074 0.2585551
vt 0.6136364 0.2585551
vt 0.6136364 0.2889734
vt 0.5971074 0.2889734
vt 0.6146694 0.2262357
vt 0.6311983 0.2262357
vt 0.6311983 0.256654
vt 0.6146694 0.256654
vt 0.5971074 0.2262357
vt 0.6136364 0.2262357
vt 0.6136364 0.256654
vt 0.5971074 0.256654

# Normal
vn 0 0 -1

# Mesh description
g Map1_mesh_0008

# Faces
f 1/1/1 2/2/1 3/3/1 4/4/1
f 5/5/1 6/6/1 7/7/1 8/8/1
f 9/1/1 10/2/1 11/3/1 12/4/1
f 13/9/1 14/10/1 15/11/1 16/12/1
f 17/13/1 18/14/1 19/15/1 20/16/1
f 21/5/1 22/6/1 23/7/1 24/8/1
f 25/9/1 26/10/1 27/11/1 28/12/1
f 29/17/1 30/18/1 31/19/1 32/20/1
f 33/21/1 34/22/1 35/23/1 36/24/1
f 37/13/1 38/14/1 39/15/1 40/16/1
f 41/17/1 42/18/1 43/19/1 44/20/1
f 45/21/1 46/22/1 47/23/1 48/24/1
f 49/1/1 50/2/1 51/3/1 52/4/1
f 53/5/1 54/6/1 55/7/1 56/8/1
f 57/1/1 58/2/1 59/3/1 60/4/1
f 61/9/1 62/10/1 63/11/1 64/12/1
f 65/13/1 66/14/1 67/15/1 68/16/1
f 69/5/1 70/6/1 71/7/1 72/8/1
f 73/9/1 74/10/1 75/11/1 76/12/1
f 77/17/1 78/18/1 79/19/1 80/20/1
f 81/21/1 82/22/1 83/23/1 84/24/1
f 85/13/1 86/14/1 87/15/1 88/16/1
f 89/25/1 90/26/1 91/27/1 92/28/1
f 93/29/1 94/30/1 95/31/1 96/32/1
f 97/25/1 98/26/1 99/27/1 100/28/1
f 101/29/1 102/30/1 103/31/1 104/32/1
f 105/25/1 106/26/1 107/27/1 108/28/1
f 109/29/1 110/30/1 111/31/1 112/32/1
f 113/17/1 114/18/1 115/19/1 116/20/1
f 117/21/1 118/22/1 119/23/1 120/24/1
f 121/25/1 122/26/1 123/27/1 124/28/1
f 125/33/1 126/34/1 127/35/1 128/36/1
f 129/37/1 130/38/1 131/39/1 132/40/1
f 133/29/1 134/30/1 135/31/1 136/32/1
f 137/25/1 138/26/1 139/27/1 140/28/1
f 141/33/1 142/34/1 143/35/1 144/36/1
f 145/37/1 146/38/1 147/39/1 148/40/1
f 149/29/1 150/30/1 151/31/1 152/32/1
f 153/25/1 154/26/1 155/27/1 156/28/1
f 157/33/1 158/34/1 159/35/1 160/36/1
f 161/37/1 162/38/1 163/39/1 164/40/1
f 165/29/1 166/30/1 167/31/1 168/32/1
f 169/33/1 170/34/1 171/35/1 172/36/1
f 173/41/1 174/42/1 175/43/1 176/44/1
f 177/45/1 178/46/1 179/47/1 180/48/1
f 181/37/1 182/38/1 183/39/1 184/40/1
f 185/33/1 186/34/1 187/35/1 188/36/1
f 189/41/1 190/42/1 191/43/1 192/44/1
f 193/45/1 194/46/1 195/47/1 196/48/1
f 197/37/1 198/38/1 199/39/1 200/40/1
f 201/33/1 202/34/1 203/35/1 204/36/1
f 205/41/1 206/42/1 207/43/1 208/44/1
f 209/45/1 210/46/1 211/47/1 212/48/1
f 213/37/1 214/38/1 215/39/1 216/40/1
f 217/41/1 218/42/1 219/43/1 220/44/1
f 221/45/1 222/46/1 223/47/1 224/48/1
f 225/41/1 226/42/1 227/43/1 228/44/1
f 229/45/1 230/46/1 231/47/1 232/48/1
f 233/41/1 234/42/1 235/43/1 236/44/1
f 237/45/1 238/46/1 239/47/1 240/48/1
f 241/25/1 242/26/1 243/27/1 244/28/1
f 245/29/1 246/30/1 247/31/1 248/32/1
f 249/25/1 250/26/1 251/27/1 252/28/1
f 253/29/1 254/30/1 255/31/1 256/32/1
f 257/25/1 258/26/1 259/27/1 260/28/1
f 261/29/1 262/30/1 263/31/1 264/32/1
f 265/25/1 266/26/1 267/27/1 268/28/1
f 269/29/1 270/30/1 271/31/1 272/32/1
f 273/25/1 274/26/1 275/27/1 276/28/1
f 277/33/1 278/34/1 279/35/1 280/36/1
f 281/37/1 282/38/1 283/39/1 284/40/1
f 285/29/1 286/30/1 287/31/1 288/32/1
f 289/25/1 290/26/1 291/27/1 292/28/1
f 293/33/1 294/34/1 295/35/1 296/36/1
f 297/37/1 298/38/1 299/39/1 300/40/1
f 301/29/1 302/30/1 303/31/1 304/32/1
f 305/25/1 306/26/1 307/27/1 308/28/1
f 309/33/1 310/34/1 311/35/1 312/36/1
f 313/37/1 314/38/1 315/39/1 316/40/1
f 317/29/1 318/30/1 319/31/1 320/32/1
f 321/25/1 322/26/1 323/27/1 324/28/1
f 325/33/1 326/34/1 327/35/1 328/36/1
f 329/37/1 330/38/1 331/39/1 332/40/1
f 333/29/1 334/30/1 335/31/1 336/32/1
f 337/33/1 338/34/1 339/35/1 340/36/1
f 341/41/1 342/42/1 343/43/1 344/44/1
f 345/45/1 346/46/1 347/47/1 348/48/1
f 349/37/1 350/38/1 351/39/1 352/40/1
f 353/33/1 354/34/1 355/35/1 356/36/1
f 357/41/1 358/42/1 359/43/1 360/44/1
f 361/45/1 362/46/1 363/47/1 364/48/1
f 365/37/1 366/38/1 367/39/1 368/40/1
f 369/33/1 370/34/1 371/35/1 372/36/1
f 373/41/1 374/42/1 375/43/1 376/44/1
f 377/45/1 378/46/1 379/47/1 380/48/1
f 381/37/1 382/38/1 383/39/1 384/40/1
f 385/33/1 386/34/1 387/35/1 388/36/1
f 389/41/1 390/42/1 391/43/1 392/44/1
f 393/45/1 394/46/1 395/47/1 396/48/1
f 397/37/1 398/38/1 399/39/1 400/40/1
f 401/41/1 402/42/1 403/43/1 404/44/1
f 405/45/1 406/46/1 407/47/1 408/48/1
f 409/41/1 410/42/1 411/43/1 412/44/1
f 413/45/1 414/46/1 415/47/1 416/48/1
f 417/41/1 418/42/1 419/43/1 420/44/1
f 421/45/1 422/46/1 423/47/1 424/48/1
f 425/41/1 426/42/1 427/43/1 428/44/1
f 429/45/1 430/46/1 431/47/1 432/48/1
f 433/25/1 434/26/1 435/27/1 436/28/1
f 437/29/1 438/30/1 439/31/1 440/32/1
f 441/25/1 442/26/1 443/27/1 444/28/1
f 445/33/1 446/34/1 447/35/1 448/36/1
f 449/37/1 450/38/1 451/39/1 452/40/1
f 453/29/1 454/30/1 455/31/1 456/32/1
f 457/25/1 458/26/1 459/27/1 460/28/1
f 461/29/1 462/30/1 463/31/1 464/32/1
f 465/25/1 466/26/1 467/27/1 468/28/1
f 469/29/1 470/30/1 471/31/1 472/32/1
f 473/33/1 474/34/1 475/35/1 476/36/1
f 477/41/1 478/42/1 479/43/1 480/44/1
f 481/45/1 482/46/1 483/47/1 484/48/1
f 485/37/1 486/38/1 487/39/1 488/40/1
f 489/25/1 490/26/1 491/27/1 492/28/1
f 493/33/1 494/34/1 495/35/1 496/36/1
f 497/37/1 498/38/1 499/39/1 500/40/1
f 501/29/1 502/30/1 503/31/1 504/32/1
f 505/25/1 506/26/1 507/27/1 508/28/1
f 509/33/1 510/34/1 511/35/1 512/36/1
f 513/37/1 514/38/1 515/39/1 516/40/1
f 517/29/1 518/30/1 519/31/1 520/32/1
f 521/41/1 522/42/1 523/43/1 524/44/1
f 525/45/1 526/46/1 527/47/1 528/48/1
f 529/33/1 530/34/1 531/35/1 532/36/1
f 533/41/1 534/42/1 535/43/1 536/44/1
f 537/45/1 538/46/1 539/47/1 540/48/1
f 541/37/1 542/38/1 543/39/1 544/40/1
f 545/33/1 546/34/1 547/35/1 548/36/1
f 549/41/1 550/42/1 551/43/1 552/44/1
f 553/45/1 554/46/1 555/47/1 556/48/1
f 557/37/1 558/38/1 559/39/1 560/40/1
f 561/41/1 562/42/1 563/43/1 564/44/1
f 565/45/1 566/46/1 567/47/1 568/48/1
f 569/41/1 570/42/1 571/43/1 572/44/1
f 573/45/1 574/46/1 575/47/1 576/48/1

