# Tiled2Unity generated file. Do not modify by hand.
# Wavefront file for 'Map1_mesh_0004.obj'

# Vertices (Count = 672)
v -1520 -48 0
v -1536 -48 0
v -1536 -32 0
v -1520 -32 0
v -1504 -48 0
v -1520 -48 0
v -1520 -32 0
v -1504 -32 0
v -1536 -64 0
v -1552 -64 0
v -1552 -48 0
v -1536 -48 0
v -1520 -64 0
v -1536 -64 0
v -1536 -48 0
v -1520 -48 0
v -1504 -64 0
v -1520 -64 0
v -1520 -48 0
v -1504 -48 0
v -1488 -64 0
v -1504 -64 0
v -1504 -48 0
v -1488 -48 0
v -1536 -80 0
v -1552 -80 0
v -1552 -64 0
v -1536 -64 0
v -1520 -80 0
v -1536 -80 0
v -1536 -64 0
v -1520 -64 0
v -1504 -80 0
v -1520 -80 0
v -1520 -64 0
v -1504 -64 0
v -1488 -80 0
v -1504 -80 0
v -1504 -64 0
v -1488 -64 0
v -1536 -96 0
v -1552 -96 0
v -1552 -80 0
v -1536 -80 0
v -1520 -96 0
v -1536 -96 0
v -1536 -80 0
v -1520 -80 0
v -1504 -96 0
v -1520 -96 0
v -1520 -80 0
v -1504 -80 0
v -1488 -96 0
v -1504 -96 0
v -1504 -80 0
v -1488 -80 0
v -784 -160 0
v -800 -160 0
v -800 -144 0
v -784 -144 0
v -768 -160 0
v -784 -160 0
v -784 -144 0
v -768 -144 0
v -800 -176 0
v -816 -176 0
v -816 -160 0
v -800 -160 0
v -784 -176 0
v -800 -176 0
v -800 -160 0
v -784 -160 0
v -768 -176 0
v -784 -176 0
v -784 -160 0
v -768 -160 0
v -752 -176 0
v -768 -176 0
v -768 -160 0
v -752 -160 0
v -800 -192 0
v -816 -192 0
v -816 -176 0
v -800 -176 0
v -784 -192 0
v -800 -192 0
v -800 -176 0
v -784 -176 0
v -768 -192 0
v -784 -192 0
v -784 -176 0
v -768 -176 0
v -752 -192 0
v -768 -192 0
v -768 -176 0
v -752 -176 0
v -1536 -208 0
v -1552 -208 0
v -1552 -192 0
v -1536 -192 0
v -1520 -208 0
v -1536 -208 0
v -1536 -192 0
v -1520 -192 0
v -1408 -208 0
v -1424 -208 0
v -1424 -192 0
v -1408 -192 0
v -1392 -208 0
v -1408 -208 0
v -1408 -192 0
v -1392 -192 0
v -1312 -208 0
v -1328 -208 0
v -1328 -192 0
v -1312 -192 0
v -1296 -208 0
v -1312 -208 0
v -1312 -192 0
v -1296 -192 0
v -800 -208 0
v -816 -208 0
v -816 -192 0
v -800 -192 0
v -784 -208 0
v -800 -208 0
v -800 -192 0
v -784 -192 0
v -768 -208 0
v -784 -208 0
v -784 -192 0
v -768 -192 0
v -752 -208 0
v -768 -208 0
v -768 -192 0
v -752 -192 0
v -1552 -224 0
v -1568 -224 0
v -1568 -208 0
v -1552 -208 0
v -1536 -224 0
v -1552 -224 0
v -1552 -208 0
v -1536 -208 0
v -1520 -224 0
v -1536 -224 0
v -1536 -208 0
v -1520 -208 0
v -1504 -224 0
v -1520 -224 0
v -1520 -208 0
v -1504 -208 0
v -1424 -224 0
v -1440 -224 0
v -1440 -208 0
v -1424 -208 0
v -1408 -224 0
v -1424 -224 0
v -1424 -208 0
v -1408 -208 0
v -1392 -224 0
v -1408 -224 0
v -1408 -208 0
v -1392 -208 0
v -1376 -224 0
v -1392 -224 0
v -1392 -208 0
v -1376 -208 0
v -1328 -224 0
v -1344 -224 0
v -1344 -208 0
v -1328 -208 0
v -1312 -224 0
v -1328 -224 0
v -1328 -208 0
v -1312 -208 0
v -1296 -224 0
v -1312 -224 0
v -1312 -208 0
v -1296 -208 0
v -1280 -224 0
v -1296 -224 0
v -1296 -208 0
v -1280 -208 0
v -1552 -240 0
v -1568 -240 0
v -1568 -224 0
v -1552 -224 0
v -1536 -240 0
v -1552 -240 0
v -1552 -224 0
v -1536 -224 0
v -1520 -240 0
v -1536 -240 0
v -1536 -224 0
v -1520 -224 0
v -1504 -240 0
v -1520 -240 0
v -1520 -224 0
v -1504 -224 0
v -1424 -240 0
v -1440 -240 0
v -1440 -224 0
v -1424 -224 0
v -1408 -240 0
v -1424 -240 0
v -1424 -224 0
v -1408 -224 0
v -1392 -240 0
v -1408 -240 0
v -1408 -224 0
v -1392 -224 0
v -1376 -240 0
v -1392 -240 0
v -1392 -224 0
v -1376 -224 0
v -1328 -240 0
v -1344 -240 0
v -1344 -224 0
v -1328 -224 0
v -1312 -240 0
v -1328 -240 0
v -1328 -224 0
v -1312 -224 0
v -1296 -240 0
v -1312 -240 0
v -1312 -224 0
v -1296 -224 0
v -1280 -240 0
v -1296 -240 0
v -1296 -224 0
v -1280 -224 0
v -1552 -256 0
v -1568 -256 0
v -1568 -240 0
v -1552 -240 0
v -1536 -256 0
v -1552 -256 0
v -1552 -240 0
v -1536 -240 0
v -1520 -256 0
v -1536 -256 0
v -1536 -240 0
v -1520 -240 0
v -1504 -256 0
v -1520 -256 0
v -1520 -240 0
v -1504 -240 0
v -1424 -256 0
v -1440 -256 0
v -1440 -240 0
v -1424 -240 0
v -1408 -256 0
v -1424 -256 0
v -1424 -240 0
v -1408 -240 0
v -1392 -256 0
v -1408 -256 0
v -1408 -240 0
v -1392 -240 0
v -1376 -256 0
v -1392 -256 0
v -1392 -240 0
v -1376 -240 0
v -1328 -256 0
v -1344 -256 0
v -1344 -240 0
v -1328 -240 0
v -1312 -256 0
v -1328 -256 0
v -1328 -240 0
v -1312 -240 0
v -1296 -256 0
v -1312 -256 0
v -1312 -240 0
v -1296 -240 0
v -1280 -256 0
v -1296 -256 0
v -1296 -240 0
v -1280 -240 0
v -1552 -384 0
v -1568 -384 0
v -1568 -368 0
v -1552 -368 0
v -1536 -384 0
v -1552 -384 0
v -1552 -368 0
v -1536 -368 0
v -1376 -384 0
v -1392 -384 0
v -1392 -368 0
v -1376 -368 0
v -1360 -384 0
v -1376 -384 0
v -1376 -368 0
v -1360 -368 0
v -1296 -384 0
v -1312 -384 0
v -1312 -368 0
v -1296 -368 0
v -1280 -384 0
v -1296 -384 0
v -1296 -368 0
v -1280 -368 0
v -1216 -384 0
v -1232 -384 0
v -1232 -368 0
v -1216 -368 0
v -1200 -384 0
v -1216 -384 0
v -1216 -368 0
v -1200 -368 0
v -1568 -400 0
v -1584 -400 0
v -1584 -384 0
v -1568 -384 0
v -1552 -400 0
v -1568 -400 0
v -1568 -384 0
v -1552 -384 0
v -1536 -400 0
v -1552 -400 0
v -1552 -384 0
v -1536 -384 0
v -1520 -400 0
v -1536 -400 0
v -1536 -384 0
v -1520 -384 0
v -1392 -400 0
v -1408 -400 0
v -1408 -384 0
v -1392 -384 0
v -1376 -400 0
v -1392 -400 0
v -1392 -384 0
v -1376 -384 0
v -1360 -400 0
v -1376 -400 0
v -1376 -384 0
v -1360 -384 0
v -1344 -400 0
v -1360 -400 0
v -1360 -384 0
v -1344 -384 0
v -1312 -400 0
v -1328 -400 0
v -1328 -384 0
v -1312 -384 0
v -1296 -400 0
v -1312 -400 0
v -1312 -384 0
v -1296 -384 0
v -1280 -400 0
v -1296 -400 0
v -1296 -384 0
v -1280 -384 0
v -1264 -400 0
v -1280 -400 0
v -1280 -384 0
v -1264 -384 0
v -1232 -400 0
v -1248 -400 0
v -1248 -384 0
v -1232 -384 0
v -1216 -400 0
v -1232 -400 0
v -1232 -384 0
v -1216 -384 0
v -1200 -400 0
v -1216 -400 0
v -1216 -384 0
v -1200 -384 0
v -1184 -400 0
v -1200 -400 0
v -1200 -384 0
v -1184 -384 0
v -1568 -416 0
v -1584 -416 0
v -1584 -400 0
v -1568 -400 0
v -1552 -416 0
v -1568 -416 0
v -1568 -400 0
v -1552 -400 0
v -1536 -416 0
v -1552 -416 0
v -1552 -400 0
v -1536 -400 0
v -1520 -416 0
v -1536 -416 0
v -1536 -400 0
v -1520 -400 0
v -1392 -416 0
v -1408 -416 0
v -1408 -400 0
v -1392 -400 0
v -1376 -416 0
v -1392 -416 0
v -1392 -400 0
v -1376 -400 0
v -1360 -416 0
v -1376 -416 0
v -1376 -400 0
v -1360 -400 0
v -1344 -416 0
v -1360 -416 0
v -1360 -400 0
v -1344 -400 0
v -1312 -416 0
v -1328 -416 0
v -1328 -400 0
v -1312 -400 0
v -1296 -416 0
v -1312 -416 0
v -1312 -400 0
v -1296 -400 0
v -1280 -416 0
v -1296 -416 0
v -1296 -400 0
v -1280 -400 0
v -1264 -416 0
v -1280 -416 0
v -1280 -400 0
v -1264 -400 0
v -1232 -416 0
v -1248 -416 0
v -1248 -400 0
v -1232 -400 0
v -1216 -416 0
v -1232 -416 0
v -1232 -400 0
v -1216 -400 0
v -1200 -416 0
v -1216 -416 0
v -1216 -400 0
v -1200 -400 0
v -1184 -416 0
v -1200 -416 0
v -1200 -400 0
v -1184 -400 0
v -1568 -432 0
v -1584 -432 0
v -1584 -416 0
v -1568 -416 0
v -1552 -432 0
v -1568 -432 0
v -1568 -416 0
v -1552 -416 0
v -1536 -432 0
v -1552 -432 0
v -1552 -416 0
v -1536 -416 0
v -1520 -432 0
v -1536 -432 0
v -1536 -416 0
v -1520 -416 0
v -1392 -432 0
v -1408 -432 0
v -1408 -416 0
v -1392 -416 0
v -1376 -432 0
v -1392 -432 0
v -1392 -416 0
v -1376 -416 0
v -1360 -432 0
v -1376 -432 0
v -1376 -416 0
v -1360 -416 0
v -1344 -432 0
v -1360 -432 0
v -1360 -416 0
v -1344 -416 0
v -1312 -432 0
v -1328 -432 0
v -1328 -416 0
v -1312 -416 0
v -1296 -432 0
v -1312 -432 0
v -1312 -416 0
v -1296 -416 0
v -1280 -432 0
v -1296 -432 0
v -1296 -416 0
v -1280 -416 0
v -1264 -432 0
v -1280 -432 0
v -1280 -416 0
v -1264 -416 0
v -1232 -432 0
v -1248 -432 0
v -1248 -416 0
v -1232 -416 0
v -1216 -432 0
v -1232 -432 0
v -1232 -416 0
v -1216 -416 0
v -1200 -432 0
v -1216 -432 0
v -1216 -416 0
v -1200 -416 0
v -1184 -432 0
v -1200 -432 0
v -1200 -416 0
v -1184 -416 0
v -1248 -512 0
v -1264 -512 0
v -1264 -496 0
v -1248 -496 0
v -1232 -512 0
v -1248 -512 0
v -1248 -496 0
v -1232 -496 0
v -1552 -528 0
v -1568 -528 0
v -1568 -512 0
v -1552 -512 0
v -1536 -528 0
v -1552 -528 0
v -1552 -512 0
v -1536 -512 0
v -1392 -528 0
v -1408 -528 0
v -1408 -512 0
v -1392 -512 0
v -1376 -528 0
v -1392 -528 0
v -1392 -512 0
v -1376 -512 0
v -1264 -528 0
v -1280 -528 0
v -1280 -512 0
v -1264 -512 0
v -1248 -528 0
v -1264 -528 0
v -1264 -512 0
v -1248 -512 0
v -1232 -528 0
v -1248 -528 0
v -1248 -512 0
v -1232 -512 0
v -1216 -528 0
v -1232 -528 0
v -1232 -512 0
v -1216 -512 0
v -1568 -544 0
v -1584 -544 0
v -1584 -528 0
v -1568 -528 0
v -1552 -544 0
v -1568 -544 0
v -1568 -528 0
v -1552 -528 0
v -1536 -544 0
v -1552 -544 0
v -1552 -528 0
v -1536 -528 0
v -1520 -544 0
v -1536 -544 0
v -1536 -528 0
v -1520 -528 0
v -1408 -544 0
v -1424 -544 0
v -1424 -528 0
v -1408 -528 0
v -1392 -544 0
v -1408 -544 0
v -1408 -528 0
v -1392 -528 0
v -1376 -544 0
v -1392 -544 0
v -1392 -528 0
v -1376 -528 0
v -1360 -544 0
v -1376 -544 0
v -1376 -528 0
v -1360 -528 0
v -1264 -544 0
v -1280 -544 0
v -1280 -528 0
v -1264 -528 0
v -1248 -544 0
v -1264 -544 0
v -1264 -528 0
v -1248 -528 0
v -1232 -544 0
v -1248 -544 0
v -1248 -528 0
v -1232 -528 0
v -1216 -544 0
v -1232 -544 0
v -1232 -528 0
v -1216 -528 0
v -1568 -560 0
v -1584 -560 0
v -1584 -544 0
v -1568 -544 0
v -1552 -560 0
v -1568 -560 0
v -1568 -544 0
v -1552 -544 0
v -1536 -560 0
v -1552 -560 0
v -1552 -544 0
v -1536 -544 0
v -1520 -560 0
v -1536 -560 0
v -1536 -544 0
v -1520 -544 0
v -1408 -560 0
v -1424 -560 0
v -1424 -544 0
v -1408 -544 0
v -1392 -560 0
v -1408 -560 0
v -1408 -544 0
v -1392 -544 0
v -1376 -560 0
v -1392 -560 0
v -1392 -544 0
v -1376 -544 0
v -1360 -560 0
v -1376 -560 0
v -1376 -544 0
v -1360 -544 0
v -1264 -560 0
v -1280 -560 0
v -1280 -544 0
v -1264 -544 0
v -1248 -560 0
v -1264 -560 0
v -1264 -544 0
v -1248 -544 0
v -1232 -560 0
v -1248 -560 0
v -1248 -544 0
v -1232 -544 0
v -1216 -560 0
v -1232 -560 0
v -1232 -544 0
v -1216 -544 0
v -1568 -576 0
v -1584 -576 0
v -1584 -560 0
v -1568 -560 0
v -1552 -576 0
v -1568 -576 0
v -1568 -560 0
v -1552 -560 0
v -1536 -576 0
v -1552 -576 0
v -1552 -560 0
v -1536 -560 0
v -1520 -576 0
v -1536 -576 0
v -1536 -560 0
v -1520 -560 0
v -1408 -576 0
v -1424 -576 0
v -1424 -560 0
v -1408 -560 0
v -1392 -576 0
v -1408 -576 0
v -1408 -560 0
v -1392 -560 0
v -1376 -576 0
v -1392 -576 0
v -1392 -560 0
v -1376 -560 0
v -1360 -576 0
v -1376 -576 0
v -1376 -560 0
v -1360 -560 0

# Texture cooridinates (Count = 72)
vt 0.4390496 0.2908745
vt 0.4555785 0.2908745
vt 0.4555785 0.3212928
vt 0.4390496 0.3212928
vt 0.4566116 0.2908745
vt 0.4731405 0.2908745
vt 0.4731405 0.3212928
vt 0.4566116 0.3212928
vt 0.4390496 0.2585551
vt 0.4555785 0.2585551
vt 0.4555785 0.2889734
vt 0.4390496 0.2889734
vt 0.4214876 0.2908745
vt 0.4380165 0.2908745
vt 0.4380165 0.3212928
vt 0.4214876 0.3212928
vt 0.4566116 0.2585551
vt 0.4731405 0.2585551
vt 0.4731405 0.2889734
vt 0.4566116 0.2889734
vt 0.4214876 0.2585551
vt 0.4380165 0.2585551
vt 0.4380165 0.2889734
vt 0.4214876 0.2889734
vt 0.4566116 0.2262357
vt 0.4731405 0.2262357
vt 0.4731405 0.256654
vt 0.4566116 0.256654
vt 0.4390496 0.2262357
vt 0.4555785 0.2262357
vt 0.4555785 0.256654
vt 0.4390496 0.256654
vt 0.4214876 0.2262357
vt 0.4380165 0.2262357
vt 0.4380165 0.256654
vt 0.4214876 0.256654
vt 0.6849173 0.2908745
vt 0.7014463 0.2908745
vt 0.7014463 0.3212928
vt 0.6849173 0.3212928
vt 0.7024794 0.2908745
vt 0.7190083 0.2908745
vt 0.7190083 0.3212928
vt 0.7024794 0.3212928
vt 0.6849173 0.2585551
vt 0.7014463 0.2585551
vt 0.7014463 0.2889734
vt 0.6849173 0.2889734
vt 0.6673554 0.2908745
vt 0.6838843 0.2908745
vt 0.6838843 0.3212928
vt 0.6673554 0.3212928
vt 0.7024794 0.2585551
vt 0.7190083 0.2585551
vt 0.7190083 0.2889734
vt 0.7024794 0.2889734
vt 0.6673554 0.2585551
vt 0.6838843 0.2585551
vt 0.6838843 0.2889734
vt 0.6673554 0.2889734
vt 0.7024794 0.2262357
vt 0.7190083 0.2262357
vt 0.7190083 0.256654
vt 0.7024794 0.256654
vt 0.6849173 0.2262357
vt 0.7014463 0.2262357
vt 0.7014463 0.256654
vt 0.6849173 0.256654
vt 0.6673554 0.2262357
vt 0.6838843 0.2262357
vt 0.6838843 0.256654
vt 0.6673554 0.256654

# Normal
vn 0 0 -1

# Mesh description
g Map1_mesh_0004

# Faces
f 1/1/1 2/2/1 3/3/1 4/4/1
f 5/1/1 6/2/1 7/3/1 8/4/1
f 9/5/1 10/6/1 11/7/1 12/8/1
f 13/9/1 14/10/1 15/11/1 16/12/1
f 17/9/1 18/10/1 19/11/1 20/12/1
f 21/13/1 22/14/1 23/15/1 24/16/1
f 25/17/1 26/18/1 27/19/1 28/20/1
f 29/9/1 30/10/1 31/11/1 32/12/1
f 33/9/1 34/10/1 35/11/1 36/12/1
f 37/21/1 38/22/1 39/23/1 40/24/1
f 41/25/1 42/26/1 43/27/1 44/28/1
f 45/29/1 46/30/1 47/31/1 48/32/1
f 49/29/1 50/30/1 51/31/1 52/32/1
f 53/33/1 54/34/1 55/35/1 56/36/1
f 57/1/1 58/2/1 59/3/1 60/4/1
f 61/1/1 62/2/1 63/3/1 64/4/1
f 65/5/1 66/6/1 67/7/1 68/8/1
f 69/9/1 70/10/1 71/11/1 72/12/1
f 73/9/1 74/10/1 75/11/1 76/12/1
f 77/13/1 78/14/1 79/15/1 80/16/1
f 81/17/1 82/18/1 83/19/1 84/20/1
f 85/9/1 86/10/1 87/11/1 88/12/1
f 89/9/1 90/10/1 91/11/1 92/12/1
f 93/21/1 94/22/1 95/23/1 96/24/1
f 97/37/1 98/38/1 99/39/1 100/40/1
f 101/37/1 102/38/1 103/39/1 104/40/1
f 105/37/1 106/38/1 107/39/1 108/40/1
f 109/37/1 110/38/1 111/39/1 112/40/1
f 113/37/1 114/38/1 115/39/1 116/40/1
f 117/37/1 118/38/1 119/39/1 120/40/1
f 121/25/1 122/26/1 123/27/1 124/28/1
f 125/29/1 126/30/1 127/31/1 128/32/1
f 129/29/1 130/30/1 131/31/1 132/32/1
f 133/33/1 134/34/1 135/35/1 136/36/1
f 137/41/1 138/42/1 139/43/1 140/44/1
f 141/45/1 142/46/1 143/47/1 144/48/1
f 145/45/1 146/46/1 147/47/1 148/48/1
f 149/49/1 150/50/1 151/51/1 152/52/1
f 153/41/1 154/42/1 155/43/1 156/44/1
f 157/45/1 158/46/1 159/47/1 160/48/1
f 161/45/1 162/46/1 163/47/1 164/48/1
f 165/49/1 166/50/1 167/51/1 168/52/1
f 169/41/1 170/42/1 171/43/1 172/44/1
f 173/45/1 174/46/1 175/47/1 176/48/1
f 177/45/1 178/46/1 179/47/1 180/48/1
f 181/49/1 182/50/1 183/51/1 184/52/1
f 185/53/1 186/54/1 187/55/1 188/56/1
f 189/45/1 190/46/1 191/47/1 192/48/1
f 193/45/1 194/46/1 195/47/1 196/48/1
f 197/57/1 198/58/1 199/59/1 200/60/1
f 201/53/1 202/54/1 203/55/1 204/56/1
f 205/45/1 206/46/1 207/47/1 208/48/1
f 209/45/1 210/46/1 211/47/1 212/48/1
f 213/57/1 214/58/1 215/59/1 216/60/1
f 217/53/1 218/54/1 219/55/1 220/56/1
f 221/45/1 222/46/1 223/47/1 224/48/1
f 225/45/1 226/46/1 227/47/1 228/48/1
f 229/57/1 230/58/1 231/59/1 232/60/1
f 233/61/1 234/62/1 235/63/1 236/64/1
f 237/65/1 238/66/1 239/67/1 240/68/1
f 241/65/1 242/66/1 243/67/1 244/68/1
f 245/69/1 246/70/1 247/71/1 248/72/1
f 249/61/1 250/62/1 251/63/1 252/64/1
f 253/65/1 254/66/1 255/67/1 256/68/1
f 257/65/1 258/66/1 259/67/1 260/68/1
f 261/69/1 262/70/1 263/71/1 264/72/1
f 265/61/1 266/62/1 267/63/1 268/64/1
f 269/65/1 270/66/1 271/67/1 272/68/1
f 273/65/1 274/66/1 275/67/1 276/68/1
f 277/69/1 278/70/1 279/71/1 280/72/1
f 281/37/1 282/38/1 283/39/1 284/40/1
f 285/37/1 286/38/1 287/39/1 288/40/1
f 289/37/1 290/38/1 291/39/1 292/40/1
f 293/37/1 294/38/1 295/39/1 296/40/1
f 297/37/1 298/38/1 299/39/1 300/40/1
f 301/37/1 302/38/1 303/39/1 304/40/1
f 305/37/1 306/38/1 307/39/1 308/40/1
f 309/37/1 310/38/1 311/39/1 312/40/1
f 313/41/1 314/42/1 315/43/1 316/44/1
f 317/45/1 318/46/1 319/47/1 320/48/1
f 321/45/1 322/46/1 323/47/1 324/48/1
f 325/49/1 326/50/1 327/51/1 328/52/1
f 329/41/1 330/42/1 331/43/1 332/44/1
f 333/45/1 334/46/1 335/47/1 336/48/1
f 337/45/1 338/46/1 339/47/1 340/48/1
f 341/49/1 342/50/1 343/51/1 344/52/1
f 345/41/1 346/42/1 347/43/1 348/44/1
f 349/45/1 350/46/1 351/47/1 352/48/1
f 353/45/1 354/46/1 355/47/1 356/48/1
f 357/49/1 358/50/1 359/51/1 360/52/1
f 361/41/1 362/42/1 363/43/1 364/44/1
f 365/45/1 366/46/1 367/47/1 368/48/1
f 369/45/1 370/46/1 371/47/1 372/48/1
f 373/49/1 374/50/1 375/51/1 376/52/1
f 377/53/1 378/54/1 379/55/1 380/56/1
f 381/45/1 382/46/1 383/47/1 384/48/1
f 385/45/1 386/46/1 387/47/1 388/48/1
f 389/57/1 390/58/1 391/59/1 392/60/1
f 393/53/1 394/54/1 395/55/1 396/56/1
f 397/45/1 398/46/1 399/47/1 400/48/1
f 401/45/1 402/46/1 403/47/1 404/48/1
f 405/57/1 406/58/1 407/59/1 408/60/1
f 409/53/1 410/54/1 411/55/1 412/56/1
f 413/45/1 414/46/1 415/47/1 416/48/1
f 417/45/1 418/46/1 419/47/1 420/48/1
f 421/57/1 422/58/1 423/59/1 424/60/1
f 425/53/1 426/54/1 427/55/1 428/56/1
f 429/45/1 430/46/1 431/47/1 432/48/1
f 433/45/1 434/46/1 435/47/1 436/48/1
f 437/57/1 438/58/1 439/59/1 440/60/1
f 441/61/1 442/62/1 443/63/1 444/64/1
f 445/65/1 446/66/1 447/67/1 448/68/1
f 449/65/1 450/66/1 451/67/1 452/68/1
f 453/69/1 454/70/1 455/71/1 456/72/1
f 457/61/1 458/62/1 459/63/1 460/64/1
f 461/65/1 462/66/1 463/67/1 464/68/1
f 465/65/1 466/66/1 467/67/1 468/68/1
f 469/69/1 470/70/1 471/71/1 472/72/1
f 473/61/1 474/62/1 475/63/1 476/64/1
f 477/65/1 478/66/1 479/67/1 480/68/1
f 481/65/1 482/66/1 483/67/1 484/68/1
f 485/69/1 486/70/1 487/71/1 488/72/1
f 489/61/1 490/62/1 491/63/1 492/64/1
f 493/65/1 494/66/1 495/67/1 496/68/1
f 497/65/1 498/66/1 499/67/1 500/68/1
f 501/69/1 502/70/1 503/71/1 504/72/1
f 505/37/1 506/38/1 507/39/1 508/40/1
f 509/37/1 510/38/1 511/39/1 512/40/1
f 513/37/1 514/38/1 515/39/1 516/40/1
f 517/37/1 518/38/1 519/39/1 520/40/1
f 521/37/1 522/38/1 523/39/1 524/40/1
f 525/37/1 526/38/1 527/39/1 528/40/1
f 529/41/1 530/42/1 531/43/1 532/44/1
f 533/45/1 534/46/1 535/47/1 536/48/1
f 537/45/1 538/46/1 539/47/1 540/48/1
f 541/49/1 542/50/1 543/51/1 544/52/1
f 545/41/1 546/42/1 547/43/1 548/44/1
f 549/45/1 550/46/1 551/47/1 552/48/1
f 553/45/1 554/46/1 555/47/1 556/48/1
f 557/49/1 558/50/1 559/51/1 560/52/1
f 561/41/1 562/42/1 563/43/1 564/44/1
f 565/45/1 566/46/1 567/47/1 568/48/1
f 569/45/1 570/46/1 571/47/1 572/48/1
f 573/49/1 574/50/1 575/51/1 576/52/1
f 577/53/1 578/54/1 579/55/1 580/56/1
f 581/45/1 582/46/1 583/47/1 584/48/1
f 585/45/1 586/46/1 587/47/1 588/48/1
f 589/57/1 590/58/1 591/59/1 592/60/1
f 593/53/1 594/54/1 595/55/1 596/56/1
f 597/45/1 598/46/1 599/47/1 600/48/1
f 601/45/1 602/46/1 603/47/1 604/48/1
f 605/57/1 606/58/1 607/59/1 608/60/1
f 609/53/1 610/54/1 611/55/1 612/56/1
f 613/45/1 614/46/1 615/47/1 616/48/1
f 617/45/1 618/46/1 619/47/1 620/48/1
f 621/57/1 622/58/1 623/59/1 624/60/1
f 625/61/1 626/62/1 627/63/1 628/64/1
f 629/65/1 630/66/1 631/67/1 632/68/1
f 633/65/1 634/66/1 635/67/1 636/68/1
f 637/69/1 638/70/1 639/71/1 640/72/1
f 641/61/1 642/62/1 643/63/1 644/64/1
f 645/65/1 646/66/1 647/67/1 648/68/1
f 649/65/1 650/66/1 651/67/1 652/68/1
f 653/69/1 654/70/1 655/71/1 656/72/1
f 657/61/1 658/62/1 659/63/1 660/64/1
f 661/65/1 662/66/1 663/67/1 664/68/1
f 665/65/1 666/66/1 667/67/1 668/68/1
f 669/69/1 670/70/1 671/71/1 672/72/1

